<svg width="200" height="200" viewBox="0 0 200 200" fill="none" xmlns="http://www.w3.org/2000/svg">
<path d="M195.879 51.9065C193.574 43.3407 186.819 36.5887 178.252 34.2821C162.602 30 99.9981 30 99.9981 30C99.9981 30 37.3961 30 21.7452 34.1189C13.3438 36.424 6.42392 43.3422 4.11833 51.9065C0 67.5522 0 100 0 100C0 100 0 132.611 4.11833 148.094C6.42545 156.658 13.179 163.411 21.7467 165.718C37.5609 170 99.9996 170 99.9996 170C99.9996 170 162.602 170 178.252 165.881C186.82 163.576 193.574 156.823 195.881 148.258C199.999 132.611 199.999 100.165 199.999 100.165C199.999 100.165 200.164 67.5522 195.879 51.9065Z" fill="#FF0000"/>
<path d="M80 130L132 100L80 70V130Z" fill="white"/>
</svg>
